<?xml version="1.0" standalone="no"?>
<!DOCTYPE svg PUBLIC "-//W3C//DTD SVG 20010904//EN"
 "http://www.w3.org/TR/2001/REC-SVG-20010904/DTD/svg10.dtd">
<svg version="1.0" xmlns="http://www.w3.org/2000/svg"
 width="512.000000pt" height="512.000000pt" viewBox="0 0 512.000000 512.000000"
 preserveAspectRatio="xMidYMid meet">
<metadata>
Created by potrace 1.11, written by Peter Selinger 2001-2013
</metadata>
<g transform="translate(0.000000,512.000000) scale(0.100000,-0.100000)"
fill="#000000" stroke="none">
<path d="M3848 4095 c-2 -1 -25 -5 -53 -8 -121 -12 -310 -93 -382 -163 -7 -7
-23 -21 -36 -31 -52 -42 -140 -159 -178 -239 -78 -163 -75 -101 -75 -1467 l1
-1212 408 -1 c292 -1 407 2 408 10 5 75 0 3098 -5 3103 -7 7 -82 13 -88 8z"/>
<path d="M2797 2644 c-233 -43 -421 -175 -544 -379 -32 -54 -77 -168 -89 -225
-4 -19 -9 -267 -11 -551 l-4 -516 411 0 410 0 0 842 0 841 -56 0 c-30 -1 -83
-6 -117 -12z"/>
<path d="M1825 1770 c-139 -34 -275 -112 -386 -221 -106 -104 -165 -192 -215
-325 -28 -74 -33 -98 -41 -185 l-5 -66 408 1 409 1 0 405 0 405 -50 1 c-27 1
-81 -7 -120 -16z"/>
</g>
</svg>
