<?xml version="1.0" standalone="no"?>
<!DOCTYPE svg PUBLIC "-//W3C//DTD SVG 20010904//EN"
 "http://www.w3.org/TR/2001/REC-SVG-20010904/DTD/svg10.dtd">
<svg version="1.0" xmlns="http://www.w3.org/2000/svg"
 width="1024.000000pt" height="1024.000000pt" viewBox="0 0 1024.000000 1024.000000"
 preserveAspectRatio="xMidYMid meet">
<metadata>
Created by potrace 1.11, written by Peter Selinger 2001-2013
</metadata>
<g transform="translate(0.000000,1024.000000) scale(0.100000,-0.100000)"
fill="#000000" stroke="none">
<path d="M7827 8195 c-1 -1 -51 -5 -112 -8 -60 -4 -122 -9 -138 -12 -15 -2
-55 -10 -90 -16 -278 -49 -597 -225 -807 -446 -257 -268 -402 -589 -428 -942
-5 -71 -8 -4761 -3 -4816 1 -10 1630 -15 1632 -5 1 3 2 1408 3 3122 l1 3116
-28 5 c-15 2 -28 3 -30 2z"/>
<path d="M5698 5305 c-2 -2 -23 -5 -48 -8 -198 -25 -417 -104 -606 -217 -191
-116 -370 -290 -499 -485 -84 -127 -161 -303 -199 -453 -15 -57 -21 -93 -36
-207 -5 -33 -8 -494 -7 -1025 l2 -964 805 -1 c443 0 811 1 818 3 9 3 12 349
12 1684 l0 1679 -120 -2 c-66 -1 -121 -3 -122 -4z"/>
<path d="M3917 3584 c-1 -1 -31 -5 -67 -8 -36 -4 -74 -9 -85 -11 -11 -3 -31
-7 -45 -9 -132 -21 -392 -120 -494 -188 -11 -7 -43 -28 -70 -45 -96 -62 -157
-109 -240 -183 -58 -53 -166 -169 -209 -225 -163 -215 -265 -429 -317 -665
-25 -112 -44 -298 -31 -301 4 -1 372 -2 819 -3 715 -1 812 1 813 14 6 108 2
1613 -5 1618 -8 5 -65 9 -69 6z"/>
</g>
</svg>
